<?xml version="1.0" encoding="utf-8"?>
<!-- Generator: Adobe Illustrator 16.2.0, SVG Export Plug-In . SVG Version: 6.00 Build 0)  -->
<!DOCTYPE svg PUBLIC "-//W3C//DTD SVG 1.1//EN" "http://www.w3.org/Graphics/SVG/1.1/DTD/svg11.dtd">
<svg version="1.1" id="Layer_1" xmlns="http://www.w3.org/2000/svg" xmlns:xlink="http://www.w3.org/1999/xlink" x="0px" y="0px"
	 width="415.132px" height="259.666px" viewBox="0 0 415.132 259.666" enable-background="new 0 0 415.132 259.666"
	 xml:space="preserve">
<g>
	<g>
		<path fill="#FFFFFF" d="M72.021,205.92c-1.806,2.268-4.033,4.244-6.684,5.935s-5.494,3.093-8.527,4.206
			c-3.035,1.115-6.146,1.949-9.334,2.506c-3.189,0.557-6.223,0.836-9.104,0.836c-5.57,0-10.698-1-15.384-2.996
			c-4.687-1.996-8.729-4.754-12.128-8.268c-3.399-3.516-6.06-7.654-7.98-12.417C0.959,190.959,0,185.832,0,180.338
			c0-4.186,0.48-8.287,1.44-12.301c0.959-4.014,2.333-7.798,4.12-11.352c1.786-3.552,3.966-6.817,6.54-9.795
			c2.573-2.976,5.493-5.539,8.758-7.691c3.264-2.15,6.836-3.822,10.717-5.013c3.879-1.19,8.028-1.786,12.445-1.786
			c1.651,0,3.418,0.067,5.301,0.201c1.881,0.136,3.754,0.366,5.618,0.691c1.863,0.327,3.678,0.778,5.445,1.354
			c1.766,0.576,3.379,1.288,4.84,2.132l-1.613,22.01c-2.152-0.807-4.37-1.354-6.655-1.643c-2.286-0.287-4.523-0.432-6.712-0.432
			c-3.074,0-5.944,0.471-8.614,1.412c-2.67,0.941-4.994,2.295-6.972,4.062c-1.979,1.767-3.543,3.918-4.696,6.453
			s-1.729,5.397-1.729,8.585c0,1.998,0.268,3.928,0.807,5.791c0.538,1.863,1.354,3.514,2.449,4.955
			c1.095,1.439,2.458,2.602,4.091,3.485c1.632,0.884,3.523,1.325,5.675,1.325c1.459,0,2.967-0.191,4.523-0.576
			c1.556-0.383,2.89-1.037,4.004-1.959l0.23-4.494l-13.828-0.23l0.691-17.285c5.723-0.191,11.446-0.354,17.17-0.49
			c5.723-0.134,11.485-0.316,17.285-0.547L72.021,205.92z"/>
		<path fill="#FFFFFF" d="M130.964,134.59c-0.23,3.611-0.442,7.184-0.634,10.717c-0.193,3.535-0.442,7.107-0.749,10.717
			l-24.43,1.268l-0.576,7.26h17.17l-1.268,17.861l-17.285,0.576l-0.576,8.412h14.289h10.141c-0.23,4.227-0.471,8.422-0.72,12.59
			c-0.25,4.168-0.471,8.346-0.663,12.531l-49.666,1.152l1.844-83.084H130.964z"/>
		<path fill="#FFFFFF" d="M193.824,135.281l-0.576,24.43l-17.17,0.691l-4.379,54.621l-24.314,1.268l0.115-54.621l-17.17,0.922
			l0.691-27.195L193.824,135.281z"/>
		<path fill="#FFFFFF" d="M311.997,153.604c0,2.844-0.135,5.973-0.403,9.392c-0.27,3.419-0.711,6.952-1.325,10.602
			c-0.615,3.649-1.411,7.347-2.392,11.091c-0.979,3.746-2.199,7.347-3.658,10.804c-1.46,3.457-3.16,6.693-5.1,9.708
			c-1.939,3.017-4.168,5.646-6.684,7.895c-2.516,2.246-5.329,4.014-8.44,5.301c-3.111,1.286-6.568,1.93-10.371,1.93
			c-4.456,0-8.325-0.721-11.61-2.16c-3.283-1.441-6.098-3.38-8.44-5.82c-2.344-2.438-4.264-5.28-5.762-8.527
			c-1.498-3.245-2.67-6.684-3.515-10.313c-0.846-3.631-1.432-7.337-1.758-11.121c-0.326-3.782-0.489-7.422-0.489-10.918
			c0-5.377,0.269-10.746,0.807-16.104c0.537-5.359,1.306-10.707,2.305-16.047l26.965,1.037c-1.037,6.031-1.931,12.091-2.679,18.178
			c-0.75,6.089-1.124,12.207-1.124,18.352c0,0.654,0.028,1.623,0.087,2.91c0.057,1.287,0.162,2.728,0.316,4.32
			c0.153,1.595,0.375,3.227,0.662,4.898c0.289,1.67,0.682,3.197,1.182,4.58c0.499,1.383,1.104,2.516,1.814,3.399
			s1.546,1.325,2.507,1.325c1.113,0,2.112-0.527,2.996-1.584c0.883-1.057,1.661-2.469,2.333-4.235s1.258-3.803,1.758-6.107
			c0.499-2.305,0.922-4.704,1.268-7.202c0.346-2.496,0.624-4.992,0.836-7.49c0.21-2.496,0.383-4.82,0.518-6.972
			s0.221-4.052,0.26-5.704c0.038-1.65,0.058-2.881,0.058-3.688c0-2.996-0.049-5.982-0.144-8.959
			c-0.097-2.977-0.241-5.943-0.433-8.902h26.965C311.767,142.771,311.997,148.15,311.997,153.604z"/>
		<path fill="#FFFFFF" d="M383.73,162.246c0,3.727-0.558,7.029-1.671,9.91c-1.114,2.881-2.642,5.396-4.581,7.548
			s-4.216,3.976-6.827,5.474c-2.612,1.498-5.407,2.718-8.384,3.658c-2.977,0.942-6.06,1.634-9.247,2.074
			c-3.188,0.442-6.319,0.684-9.392,0.721v26.85h-26.85c0-8.795,0.019-17.553,0.058-26.273c0.038-8.719,0.096-17.516,0.173-26.389
			c0.076-4.686,0.096-9.371,0.058-14.059c-0.039-4.686,0.058-9.41,0.288-14.174c4.916-1.459,9.833-2.555,14.75-3.284
			c4.916-0.729,9.986-1.095,15.211-1.095c2.957,0,5.915,0.24,8.873,0.721c2.957,0.48,5.791,1.238,8.498,2.275
			c2.709,1.037,5.224,2.334,7.549,3.889c2.323,1.557,4.33,3.41,6.021,5.561c1.689,2.152,3.024,4.601,4.005,7.346
			C383.24,155.745,383.73,158.828,383.73,162.246z M358.148,164.205c0-2.496-0.759-4.445-2.275-5.848
			c-1.519-1.402-3.486-2.104-5.906-2.104c-0.807,0-1.643,0.067-2.506,0.201c-0.865,0.136-1.682,0.299-2.449,0.49l-0.691,16.824
			c0.537,0.078,1.056,0.115,1.556,0.115c0.499,0,1.018,0,1.556,0c1.383,0,2.717-0.23,4.004-0.691s2.43-1.123,3.429-1.988
			c0.998-0.863,1.795-1.881,2.392-3.053C357.851,166.98,358.148,165.666,358.148,164.205z"/>
		<path fill="#FFFFFF" d="M415.132,132.055l-4.725,60.613h-21.318l-2.189-60.613H415.132z M411.329,210.414
			c0,1.691-0.327,3.266-0.979,4.725c-0.653,1.461-1.527,2.736-2.621,3.832c-1.096,1.094-2.373,1.959-3.832,2.592
			c-1.46,0.635-3.016,0.951-4.667,0.951c-1.69,0-3.266-0.316-4.725-0.951c-1.46-0.633-2.737-1.498-3.831-2.592
			c-1.096-1.096-1.959-2.371-2.594-3.832c-0.633-1.459-0.95-3.033-0.95-4.725c0-1.65,0.317-3.227,0.95-4.725
			c0.635-1.498,1.498-2.795,2.594-3.889c1.094-1.096,2.371-1.969,3.831-2.622c1.459-0.653,3.034-0.979,4.725-0.979
			c1.651,0,3.207,0.326,4.667,0.979c1.459,0.653,2.736,1.526,3.832,2.622c1.094,1.094,1.968,2.391,2.621,3.889
			C411.002,207.188,411.329,208.764,411.329,210.414z"/>
	</g>
	<g>
		<path fill="#FFFFFF" d="M231.82,2v21c2.867,0,5.769,0.274,8.624,0.815c24.87,4.712,41.271,28.784,36.56,53.656
			c-4.105,21.659-23.044,37.379-45.031,37.379c-2.868,0-5.769-0.274-8.621-0.815c-24.875-4.714-41.279-28.785-36.567-53.657
			c4.104-21.657,23.044-37.377,45.035-37.378L231.82,2 M231.818,2c-31.514,0.001-59.583,22.368-65.667,54.468
			c-6.879,36.308,16.976,71.318,53.29,78.2c4.211,0.798,8.397,1.182,12.531,1.182c31.512,0,59.579-22.371,65.664-54.467
			c6.877-36.311-16.973-71.32-53.283-78.2C240.143,2.385,235.952,2,231.818,2L231.818,2z"/>
	</g>
	<g>
		<polygon fill="#FFFFFF" points="235.339,116.999 193.674,261.666 207.829,111.785 		"/>
	</g>
</g>
</svg>
