<?xml version="1.0" ?><svg enable-background="new 0 0 512 512" height="512px" id="Layer_1" version="1.1" viewBox="0 0 512 512" width="512px" xml:space="preserve" xmlns="http://www.w3.org/2000/svg" xmlns:xlink="http://www.w3.org/1999/xlink"><g><path d="   M204.8,255.3c0,6.7-2.7,12.7-7.1,17.1c-4.4,4.4-10.4,7.1-17.1,7.1c-6.7,0-12.7-2.7-17.1-7.1c-4.4-4.4-7.1-10.4-7.1-17.1   s2.7-12.7,7.1-17.1s10.4-7.1,17.1-7.1c6.7,0,12.7,2.7,17.1,7.1C202.1,242.6,204.8,248.6,204.8,255.3z" fill="none" stroke="#000000" stroke-linecap="round" stroke-linejoin="round" stroke-miterlimit="10" stroke-width="10"/><path d="   M355.5,183.7c0,6.7-2.7,12.7-7.1,17.1s-10.4,7.1-17.1,7.1s-12.7-2.7-17.1-7.1s-7.1-10.4-7.1-17.1c0-6.7,2.7-12.7,7.1-17.1   c4.4-4.4,10.4-7.1,17.1-7.1s12.7,2.7,17.1,7.1C352.8,171,355.5,177,355.5,183.7z" fill="none" stroke="#000000" stroke-linecap="round" stroke-linejoin="round" stroke-miterlimit="10" stroke-width="10"/><line fill="none" stroke="#000000" stroke-linecap="round" stroke-linejoin="round" stroke-miterlimit="10" stroke-width="10" x1="204.8" x2="307.2" y1="256" y2="195"/><path d="   M355.5,328.3c0-6.7-2.7-12.7-7.1-17.1s-10.4-7.1-17.1-7.1s-12.7,2.7-17.1,7.1s-7.1,10.4-7.1,17.1s2.7,12.7,7.1,17.1   s10.4,7.1,17.1,7.1s12.7-2.7,17.1-7.1S355.5,335,355.5,328.3z" fill="none" stroke="#000000" stroke-linecap="round" stroke-linejoin="round" stroke-miterlimit="10" stroke-width="10"/><line fill="none" stroke="#000000" stroke-linecap="round" stroke-linejoin="round" stroke-miterlimit="10" stroke-width="10" x1="204.8" x2="307.2" y1="256" y2="317"/></g></svg>